<svg xmlns="http://www.w3.org/2000/svg" width="656" height="656" viewBox="0 0 656 656"><rect width="656" height="656" fill="#FFFFFF"/><g fill="#065F46"><rect x="64" y="64" width="16" height="16"/><rect x="80" y="64" width="16" height="16"/><rect x="96" y="64" width="16" height="16"/><rect x="112" y="64" width="16" height="16"/><rect x="128" y="64" width="16" height="16"/><rect x="144" y="64" width="16" height="16"/><rect x="160" y="64" width="16" height="16"/><rect x="192" y="64" width="16" height="16"/><rect x="272" y="64" width="16" height="16"/><rect x="304" y="64" width="16" height="16"/><rect x="320" y="64" width="16" height="16"/><rect x="336" y="64" width="16" height="16"/><rect x="384" y="64" width="16" height="16"/><rect x="416" y="64" width="16" height="16"/><rect x="432" y="64" width="16" height="16"/><rect x="448" y="64" width="16" height="16"/><rect x="480" y="64" width="16" height="16"/><rect x="496" y="64" width="16" height="16"/><rect x="512" y="64" width="16" height="16"/><rect x="528" y="64" width="16" height="16"/><rect x="544" y="64" width="16" height="16"/><rect x="560" y="64" width="16" height="16"/><rect x="576" y="64" width="16" height="16"/><rect x="64" y="80" width="16" height="16"/><rect x="160" y="80" width="16" height="16"/><rect x="224" y="80" width="16" height="16"/><rect x="256" y="80" width="16" height="16"/><rect x="272" y="80" width="16" height="16"/><rect x="288" y="80" width="16" height="16"/><rect x="320" y="80" width="16" height="16"/><rect x="336" y="80" width="16" height="16"/><rect x="400" y="80" width="16" height="16"/><rect x="416" y="80" width="16" height="16"/><rect x="432" y="80" width="16" height="16"/><rect x="480" y="80" width="16" height="16"/><rect x="576" y="80" width="16" height="16"/><rect x="64" y="96" width="16" height="16"/><rect x="96" y="96" width="16" height="16"/><rect x="112" y="96" width="16" height="16"/><rect x="128" y="96" width="16" height="16"/><rect x="160" y="96" width="16" height="16"/><rect x="208" y="96" width="16" height="16"/><rect x="240" y="96" width="16" height="16"/><rect x="256" y="96" width="16" height="16"/><rect x="272" y="96" width="16" height="16"/><rect x="336" y="96" width="16" height="16"/><rect x="352" y="96" width="16" height="16"/><rect x="384" y="96" width="16" height="16"/><rect x="416" y="96" width="16" height="16"/><rect x="432" y="96" width="16" height="16"/><rect x="448" y="96" width="16" height="16"/><rect x="480" y="96" width="16" height="16"/><rect x="512" y="96" width="16" height="16"/><rect x="528" y="96" width="16" height="16"/><rect x="544" y="96" width="16" height="16"/><rect x="576" y="96" width="16" height="16"/><rect x="64" y="112" width="16" height="16"/><rect x="96" y="112" width="16" height="16"/><rect x="112" y="112" width="16" height="16"/><rect x="128" y="112" width="16" height="16"/><rect x="160" y="112" width="16" height="16"/><rect x="192" y="112" width="16" height="16"/><rect x="208" y="112" width="16" height="16"/><rect x="240" y="112" width="16" height="16"/><rect x="272" y="112" width="16" height="16"/><rect x="288" y="112" width="16" height="16"/><rect x="320" y="112" width="16" height="16"/><rect x="352" y="112" width="16" height="16"/><rect x="368" y="112" width="16" height="16"/><rect x="384" y="112" width="16" height="16"/><rect x="480" y="112" width="16" height="16"/><rect x="512" y="112" width="16" height="16"/><rect x="528" y="112" width="16" height="16"/><rect x="544" y="112" width="16" height="16"/><rect x="576" y="112" width="16" height="16"/><rect x="64" y="128" width="16" height="16"/><rect x="96" y="128" width="16" height="16"/><rect x="112" y="128" width="16" height="16"/><rect x="128" y="128" width="16" height="16"/><rect x="160" y="128" width="16" height="16"/><rect x="208" y="128" width="16" height="16"/><rect x="240" y="128" width="16" height="16"/><rect x="288" y="128" width="16" height="16"/><rect x="304" y="128" width="16" height="16"/><rect x="352" y="128" width="16" height="16"/><rect x="384" y="128" width="16" height="16"/><rect x="400" y="128" width="16" height="16"/><rect x="416" y="128" width="16" height="16"/><rect x="480" y="128" width="16" height="16"/><rect x="512" y="128" width="16" height="16"/><rect x="528" y="128" width="16" height="16"/><rect x="544" y="128" width="16" height="16"/><rect x="576" y="128" width="16" height="16"/><rect x="64" y="144" width="16" height="16"/><rect x="160" y="144" width="16" height="16"/><rect x="208" y="144" width="16" height="16"/><rect x="224" y="144" width="16" height="16"/><rect x="256" y="144" width="16" height="16"/><rect x="272" y="144" width="16" height="16"/><rect x="320" y="144" width="16" height="16"/><rect x="336" y="144" width="16" height="16"/><rect x="384" y="144" width="16" height="16"/><rect x="416" y="144" width="16" height="16"/><rect x="480" y="144" width="16" height="16"/><rect x="576" y="144" width="16" height="16"/><rect x="64" y="160" width="16" height="16"/><rect x="80" y="160" width="16" height="16"/><rect x="96" y="160" width="16" height="16"/><rect x="112" y="160" width="16" height="16"/><rect x="128" y="160" width="16" height="16"/><rect x="144" y="160" width="16" height="16"/><rect x="160" y="160" width="16" height="16"/><rect x="192" y="160" width="16" height="16"/><rect x="224" y="160" width="16" height="16"/><rect x="256" y="160" width="16" height="16"/><rect x="288" y="160" width="16" height="16"/><rect x="320" y="160" width="16" height="16"/><rect x="352" y="160" width="16" height="16"/><rect x="384" y="160" width="16" height="16"/><rect x="416" y="160" width="16" height="16"/><rect x="448" y="160" width="16" height="16"/><rect x="480" y="160" width="16" height="16"/><rect x="496" y="160" width="16" height="16"/><rect x="512" y="160" width="16" height="16"/><rect x="528" y="160" width="16" height="16"/><rect x="544" y="160" width="16" height="16"/><rect x="560" y="160" width="16" height="16"/><rect x="576" y="160" width="16" height="16"/><rect x="208" y="176" width="16" height="16"/><rect x="256" y="176" width="16" height="16"/><rect x="288" y="176" width="16" height="16"/><rect x="320" y="176" width="16" height="16"/><rect x="352" y="176" width="16" height="16"/><rect x="384" y="176" width="16" height="16"/><rect x="400" y="176" width="16" height="16"/><rect x="448" y="176" width="16" height="16"/><rect x="96" y="192" width="16" height="16"/><rect x="128" y="192" width="16" height="16"/><rect x="144" y="192" width="16" height="16"/><rect x="160" y="192" width="16" height="16"/><rect x="192" y="192" width="16" height="16"/><rect x="208" y="192" width="16" height="16"/><rect x="224" y="192" width="16" height="16"/><rect x="240" y="192" width="16" height="16"/><rect x="272" y="192" width="16" height="16"/><rect x="304" y="192" width="16" height="16"/><rect x="336" y="192" width="16" height="16"/><rect x="400" y="192" width="16" height="16"/><rect x="432" y="192" width="16" height="16"/><rect x="448" y="192" width="16" height="16"/><rect x="464" y="192" width="16" height="16"/><rect x="528" y="192" width="16" height="16"/><rect x="576" y="192" width="16" height="16"/><rect x="96" y="208" width="16" height="16"/><rect x="128" y="208" width="16" height="16"/><rect x="176" y="208" width="16" height="16"/><rect x="256" y="208" width="16" height="16"/><rect x="272" y="208" width="16" height="16"/><rect x="288" y="208" width="16" height="16"/><rect x="304" y="208" width="16" height="16"/><rect x="320" y="208" width="16" height="16"/><rect x="352" y="208" width="16" height="16"/><rect x="384" y="208" width="16" height="16"/><rect x="400" y="208" width="16" height="16"/><rect x="480" y="208" width="16" height="16"/><rect x="528" y="208" width="16" height="16"/><rect x="560" y="208" width="16" height="16"/><rect x="576" y="208" width="16" height="16"/><rect x="80" y="224" width="16" height="16"/><rect x="144" y="224" width="16" height="16"/><rect x="160" y="224" width="16" height="16"/><rect x="192" y="224" width="16" height="16"/><rect x="208" y="224" width="16" height="16"/><rect x="240" y="224" width="16" height="16"/><rect x="272" y="224" width="16" height="16"/><rect x="304" y="224" width="16" height="16"/><rect x="336" y="224" width="16" height="16"/><rect x="368" y="224" width="16" height="16"/><rect x="416" y="224" width="16" height="16"/><rect x="448" y="224" width="16" height="16"/><rect x="464" y="224" width="16" height="16"/><rect x="480" y="224" width="16" height="16"/><rect x="512" y="224" width="16" height="16"/><rect x="544" y="224" width="16" height="16"/><rect x="560" y="224" width="16" height="16"/><rect x="576" y="224" width="16" height="16"/><rect x="64" y="240" width="16" height="16"/><rect x="80" y="240" width="16" height="16"/><rect x="96" y="240" width="16" height="16"/><rect x="128" y="240" width="16" height="16"/><rect x="144" y="240" width="16" height="16"/><rect x="176" y="240" width="16" height="16"/><rect x="224" y="240" width="16" height="16"/><rect x="240" y="240" width="16" height="16"/><rect x="256" y="240" width="16" height="16"/><rect x="272" y="240" width="16" height="16"/><rect x="336" y="240" width="16" height="16"/><rect x="368" y="240" width="16" height="16"/><rect x="400" y="240" width="16" height="16"/><rect x="416" y="240" width="16" height="16"/><rect x="464" y="240" width="16" height="16"/><rect x="480" y="240" width="16" height="16"/><rect x="560" y="240" width="16" height="16"/><rect x="576" y="240" width="16" height="16"/><rect x="64" y="256" width="16" height="16"/><rect x="112" y="256" width="16" height="16"/><rect x="144" y="256" width="16" height="16"/><rect x="160" y="256" width="16" height="16"/><rect x="176" y="256" width="16" height="16"/><rect x="192" y="256" width="16" height="16"/><rect x="240" y="256" width="16" height="16"/><rect x="272" y="256" width="16" height="16"/><rect x="288" y="256" width="16" height="16"/><rect x="304" y="256" width="16" height="16"/><rect x="336" y="256" width="16" height="16"/><rect x="368" y="256" width="16" height="16"/><rect x="384" y="256" width="16" height="16"/><rect x="416" y="256" width="16" height="16"/><rect x="464" y="256" width="16" height="16"/><rect x="480" y="256" width="16" height="16"/><rect x="496" y="256" width="16" height="16"/><rect x="512" y="256" width="16" height="16"/><rect x="528" y="256" width="16" height="16"/><rect x="560" y="256" width="16" height="16"/><rect x="576" y="256" width="16" height="16"/><rect x="80" y="272" width="16" height="16"/><rect x="128" y="272" width="16" height="16"/><rect x="144" y="272" width="16" height="16"/><rect x="192" y="272" width="16" height="16"/><rect x="256" y="272" width="16" height="16"/><rect x="272" y="272" width="16" height="16"/><rect x="288" y="272" width="16" height="16"/><rect x="304" y="272" width="16" height="16"/><rect x="320" y="272" width="16" height="16"/><rect x="336" y="272" width="16" height="16"/><rect x="352" y="272" width="16" height="16"/><rect x="384" y="272" width="16" height="16"/><rect x="416" y="272" width="16" height="16"/><rect x="448" y="272" width="16" height="16"/><rect x="464" y="272" width="16" height="16"/><rect x="480" y="272" width="16" height="16"/><rect x="496" y="272" width="16" height="16"/><rect x="528" y="272" width="16" height="16"/><rect x="560" y="272" width="16" height="16"/><rect x="576" y="272" width="16" height="16"/><rect x="96" y="288" width="16" height="16"/><rect x="128" y="288" width="16" height="16"/><rect x="144" y="288" width="16" height="16"/><rect x="160" y="288" width="16" height="16"/><rect x="192" y="288" width="16" height="16"/><rect x="208" y="288" width="16" height="16"/><rect x="224" y="288" width="16" height="16"/><rect x="240" y="288" width="16" height="16"/><rect x="352" y="288" width="16" height="16"/><rect x="384" y="288" width="16" height="16"/><rect x="400" y="288" width="16" height="16"/><rect x="464" y="288" width="16" height="16"/><rect x="480" y="288" width="16" height="16"/><rect x="496" y="288" width="16" height="16"/><rect x="512" y="288" width="16" height="16"/><rect x="544" y="288" width="16" height="16"/><rect x="560" y="288" width="16" height="16"/><rect x="576" y="288" width="16" height="16"/><rect x="64" y="304" width="16" height="16"/><rect x="96" y="304" width="16" height="16"/><rect x="112" y="304" width="16" height="16"/><rect x="128" y="304" width="16" height="16"/><rect x="176" y="304" width="16" height="16"/><rect x="192" y="304" width="16" height="16"/><rect x="224" y="304" width="16" height="16"/><rect x="240" y="304" width="16" height="16"/><rect x="272" y="304" width="16" height="16"/><rect x="288" y="304" width="16" height="16"/><rect x="368" y="304" width="16" height="16"/><rect x="400" y="304" width="16" height="16"/><rect x="416" y="304" width="16" height="16"/><rect x="480" y="304" width="16" height="16"/><rect x="496" y="304" width="16" height="16"/><rect x="528" y="304" width="16" height="16"/><rect x="576" y="304" width="16" height="16"/><rect x="64" y="320" width="16" height="16"/><rect x="96" y="320" width="16" height="16"/><rect x="112" y="320" width="16" height="16"/><rect x="128" y="320" width="16" height="16"/><rect x="144" y="320" width="16" height="16"/><rect x="160" y="320" width="16" height="16"/><rect x="240" y="320" width="16" height="16"/><rect x="256" y="320" width="16" height="16"/><rect x="320" y="320" width="16" height="16"/><rect x="336" y="320" width="16" height="16"/><rect x="368" y="320" width="16" height="16"/><rect x="400" y="320" width="16" height="16"/><rect x="416" y="320" width="16" height="16"/><rect x="464" y="320" width="16" height="16"/><rect x="480" y="320" width="16" height="16"/><rect x="496" y="320" width="16" height="16"/><rect x="544" y="320" width="16" height="16"/><rect x="176" y="336" width="16" height="16"/><rect x="208" y="336" width="16" height="16"/><rect x="288" y="336" width="16" height="16"/><rect x="304" y="336" width="16" height="16"/><rect x="368" y="336" width="16" height="16"/><rect x="384" y="336" width="16" height="16"/><rect x="464" y="336" width="16" height="16"/><rect x="480" y="336" width="16" height="16"/><rect x="528" y="336" width="16" height="16"/><rect x="544" y="336" width="16" height="16"/><rect x="576" y="336" width="16" height="16"/><rect x="80" y="352" width="16" height="16"/><rect x="96" y="352" width="16" height="16"/><rect x="128" y="352" width="16" height="16"/><rect x="144" y="352" width="16" height="16"/><rect x="160" y="352" width="16" height="16"/><rect x="176" y="352" width="16" height="16"/><rect x="240" y="352" width="16" height="16"/><rect x="368" y="352" width="16" height="16"/><rect x="464" y="352" width="16" height="16"/><rect x="544" y="352" width="16" height="16"/><rect x="560" y="352" width="16" height="16"/><rect x="576" y="352" width="16" height="16"/><rect x="64" y="368" width="16" height="16"/><rect x="80" y="368" width="16" height="16"/><rect x="96" y="368" width="16" height="16"/><rect x="128" y="368" width="16" height="16"/><rect x="176" y="368" width="16" height="16"/><rect x="192" y="368" width="16" height="16"/><rect x="208" y="368" width="16" height="16"/><rect x="240" y="368" width="16" height="16"/><rect x="304" y="368" width="16" height="16"/><rect x="320" y="368" width="16" height="16"/><rect x="336" y="368" width="16" height="16"/><rect x="352" y="368" width="16" height="16"/><rect x="368" y="368" width="16" height="16"/><rect x="400" y="368" width="16" height="16"/><rect x="416" y="368" width="16" height="16"/><rect x="464" y="368" width="16" height="16"/><rect x="480" y="368" width="16" height="16"/><rect x="512" y="368" width="16" height="16"/><rect x="560" y="368" width="16" height="16"/><rect x="64" y="384" width="16" height="16"/><rect x="80" y="384" width="16" height="16"/><rect x="112" y="384" width="16" height="16"/><rect x="128" y="384" width="16" height="16"/><rect x="144" y="384" width="16" height="16"/><rect x="160" y="384" width="16" height="16"/><rect x="272" y="384" width="16" height="16"/><rect x="320" y="384" width="16" height="16"/><rect x="336" y="384" width="16" height="16"/><rect x="352" y="384" width="16" height="16"/><rect x="368" y="384" width="16" height="16"/><rect x="400" y="384" width="16" height="16"/><rect x="464" y="384" width="16" height="16"/><rect x="528" y="384" width="16" height="16"/><rect x="576" y="384" width="16" height="16"/><rect x="96" y="400" width="16" height="16"/><rect x="128" y="400" width="16" height="16"/><rect x="144" y="400" width="16" height="16"/><rect x="176" y="400" width="16" height="16"/><rect x="192" y="400" width="16" height="16"/><rect x="224" y="400" width="16" height="16"/><rect x="256" y="400" width="16" height="16"/><rect x="272" y="400" width="16" height="16"/><rect x="304" y="400" width="16" height="16"/><rect x="336" y="400" width="16" height="16"/><rect x="368" y="400" width="16" height="16"/><rect x="384" y="400" width="16" height="16"/><rect x="400" y="400" width="16" height="16"/><rect x="432" y="400" width="16" height="16"/><rect x="464" y="400" width="16" height="16"/><rect x="528" y="400" width="16" height="16"/><rect x="576" y="400" width="16" height="16"/><rect x="64" y="416" width="16" height="16"/><rect x="96" y="416" width="16" height="16"/><rect x="112" y="416" width="16" height="16"/><rect x="128" y="416" width="16" height="16"/><rect x="160" y="416" width="16" height="16"/><rect x="192" y="416" width="16" height="16"/><rect x="240" y="416" width="16" height="16"/><rect x="288" y="416" width="16" height="16"/><rect x="304" y="416" width="16" height="16"/><rect x="320" y="416" width="16" height="16"/><rect x="336" y="416" width="16" height="16"/><rect x="368" y="416" width="16" height="16"/><rect x="416" y="416" width="16" height="16"/><rect x="480" y="416" width="16" height="16"/><rect x="528" y="416" width="16" height="16"/><rect x="544" y="416" width="16" height="16"/><rect x="560" y="416" width="16" height="16"/><rect x="576" y="416" width="16" height="16"/><rect x="80" y="432" width="16" height="16"/><rect x="112" y="432" width="16" height="16"/><rect x="192" y="432" width="16" height="16"/><rect x="208" y="432" width="16" height="16"/><rect x="240" y="432" width="16" height="16"/><rect x="256" y="432" width="16" height="16"/><rect x="288" y="432" width="16" height="16"/><rect x="320" y="432" width="16" height="16"/><rect x="352" y="432" width="16" height="16"/><rect x="368" y="432" width="16" height="16"/><rect x="400" y="432" width="16" height="16"/><rect x="416" y="432" width="16" height="16"/><rect x="432" y="432" width="16" height="16"/><rect x="464" y="432" width="16" height="16"/><rect x="512" y="432" width="16" height="16"/><rect x="64" y="448" width="16" height="16"/><rect x="112" y="448" width="16" height="16"/><rect x="160" y="448" width="16" height="16"/><rect x="176" y="448" width="16" height="16"/><rect x="192" y="448" width="16" height="16"/><rect x="208" y="448" width="16" height="16"/><rect x="224" y="448" width="16" height="16"/><rect x="336" y="448" width="16" height="16"/><rect x="352" y="448" width="16" height="16"/><rect x="384" y="448" width="16" height="16"/><rect x="400" y="448" width="16" height="16"/><rect x="448" y="448" width="16" height="16"/><rect x="464" y="448" width="16" height="16"/><rect x="480" y="448" width="16" height="16"/><rect x="496" y="448" width="16" height="16"/><rect x="512" y="448" width="16" height="16"/><rect x="576" y="448" width="16" height="16"/><rect x="192" y="464" width="16" height="16"/><rect x="224" y="464" width="16" height="16"/><rect x="304" y="464" width="16" height="16"/><rect x="320" y="464" width="16" height="16"/><rect x="336" y="464" width="16" height="16"/><rect x="416" y="464" width="16" height="16"/><rect x="432" y="464" width="16" height="16"/><rect x="448" y="464" width="16" height="16"/><rect x="512" y="464" width="16" height="16"/><rect x="528" y="464" width="16" height="16"/><rect x="560" y="464" width="16" height="16"/><rect x="576" y="464" width="16" height="16"/><rect x="64" y="480" width="16" height="16"/><rect x="80" y="480" width="16" height="16"/><rect x="96" y="480" width="16" height="16"/><rect x="112" y="480" width="16" height="16"/><rect x="128" y="480" width="16" height="16"/><rect x="144" y="480" width="16" height="16"/><rect x="160" y="480" width="16" height="16"/><rect x="208" y="480" width="16" height="16"/><rect x="224" y="480" width="16" height="16"/><rect x="272" y="480" width="16" height="16"/><rect x="336" y="480" width="16" height="16"/><rect x="352" y="480" width="16" height="16"/><rect x="384" y="480" width="16" height="16"/><rect x="400" y="480" width="16" height="16"/><rect x="432" y="480" width="16" height="16"/><rect x="448" y="480" width="16" height="16"/><rect x="480" y="480" width="16" height="16"/><rect x="512" y="480" width="16" height="16"/><rect x="544" y="480" width="16" height="16"/><rect x="560" y="480" width="16" height="16"/><rect x="576" y="480" width="16" height="16"/><rect x="64" y="496" width="16" height="16"/><rect x="160" y="496" width="16" height="16"/><rect x="192" y="496" width="16" height="16"/><rect x="224" y="496" width="16" height="16"/><rect x="256" y="496" width="16" height="16"/><rect x="272" y="496" width="16" height="16"/><rect x="288" y="496" width="16" height="16"/><rect x="304" y="496" width="16" height="16"/><rect x="320" y="496" width="16" height="16"/><rect x="336" y="496" width="16" height="16"/><rect x="384" y="496" width="16" height="16"/><rect x="448" y="496" width="16" height="16"/><rect x="512" y="496" width="16" height="16"/><rect x="528" y="496" width="16" height="16"/><rect x="576" y="496" width="16" height="16"/><rect x="64" y="512" width="16" height="16"/><rect x="96" y="512" width="16" height="16"/><rect x="112" y="512" width="16" height="16"/><rect x="128" y="512" width="16" height="16"/><rect x="160" y="512" width="16" height="16"/><rect x="192" y="512" width="16" height="16"/><rect x="208" y="512" width="16" height="16"/><rect x="240" y="512" width="16" height="16"/><rect x="272" y="512" width="16" height="16"/><rect x="288" y="512" width="16" height="16"/><rect x="304" y="512" width="16" height="16"/><rect x="336" y="512" width="16" height="16"/><rect x="352" y="512" width="16" height="16"/><rect x="368" y="512" width="16" height="16"/><rect x="384" y="512" width="16" height="16"/><rect x="448" y="512" width="16" height="16"/><rect x="464" y="512" width="16" height="16"/><rect x="480" y="512" width="16" height="16"/><rect x="496" y="512" width="16" height="16"/><rect x="512" y="512" width="16" height="16"/><rect x="560" y="512" width="16" height="16"/><rect x="64" y="528" width="16" height="16"/><rect x="96" y="528" width="16" height="16"/><rect x="112" y="528" width="16" height="16"/><rect x="128" y="528" width="16" height="16"/><rect x="160" y="528" width="16" height="16"/><rect x="272" y="528" width="16" height="16"/><rect x="288" y="528" width="16" height="16"/><rect x="336" y="528" width="16" height="16"/><rect x="352" y="528" width="16" height="16"/><rect x="368" y="528" width="16" height="16"/><rect x="512" y="528" width="16" height="16"/><rect x="544" y="528" width="16" height="16"/><rect x="64" y="544" width="16" height="16"/><rect x="96" y="544" width="16" height="16"/><rect x="112" y="544" width="16" height="16"/><rect x="128" y="544" width="16" height="16"/><rect x="160" y="544" width="16" height="16"/><rect x="192" y="544" width="16" height="16"/><rect x="208" y="544" width="16" height="16"/><rect x="224" y="544" width="16" height="16"/><rect x="240" y="544" width="16" height="16"/><rect x="272" y="544" width="16" height="16"/><rect x="288" y="544" width="16" height="16"/><rect x="304" y="544" width="16" height="16"/><rect x="368" y="544" width="16" height="16"/><rect x="400" y="544" width="16" height="16"/><rect x="432" y="544" width="16" height="16"/><rect x="448" y="544" width="16" height="16"/><rect x="464" y="544" width="16" height="16"/><rect x="496" y="544" width="16" height="16"/><rect x="512" y="544" width="16" height="16"/><rect x="576" y="544" width="16" height="16"/><rect x="64" y="560" width="16" height="16"/><rect x="160" y="560" width="16" height="16"/><rect x="240" y="560" width="16" height="16"/><rect x="256" y="560" width="16" height="16"/><rect x="272" y="560" width="16" height="16"/><rect x="304" y="560" width="16" height="16"/><rect x="368" y="560" width="16" height="16"/><rect x="400" y="560" width="16" height="16"/><rect x="416" y="560" width="16" height="16"/><rect x="448" y="560" width="16" height="16"/><rect x="496" y="560" width="16" height="16"/><rect x="544" y="560" width="16" height="16"/><rect x="560" y="560" width="16" height="16"/><rect x="64" y="576" width="16" height="16"/><rect x="80" y="576" width="16" height="16"/><rect x="96" y="576" width="16" height="16"/><rect x="112" y="576" width="16" height="16"/><rect x="128" y="576" width="16" height="16"/><rect x="144" y="576" width="16" height="16"/><rect x="160" y="576" width="16" height="16"/><rect x="224" y="576" width="16" height="16"/><rect x="240" y="576" width="16" height="16"/><rect x="256" y="576" width="16" height="16"/><rect x="368" y="576" width="16" height="16"/><rect x="400" y="576" width="16" height="16"/><rect x="432" y="576" width="16" height="16"/><rect x="448" y="576" width="16" height="16"/><rect x="464" y="576" width="16" height="16"/><rect x="480" y="576" width="16" height="16"/><rect x="496" y="576" width="16" height="16"/><rect x="512" y="576" width="16" height="16"/><rect x="544" y="576" width="16" height="16"/><rect x="560" y="576" width="16" height="16"/><rect x="576" y="576" width="16" height="16"/></g><circle cx="328" cy="328" r="84.0" fill="#FFFFFF"/><circle cx="328" cy="328" r="65.6" fill="#FFFFFF" stroke="#0A0A0A" stroke-width="5.2"/><line x1="328.0" y1="297.8" x2="328.0" y2="269.0" stroke="#0A0A0A" stroke-width="4.6" stroke-linecap="round"/><line x1="356.7" y1="318.7" x2="384.2" y2="309.8" stroke="#0A0A0A" stroke-width="4.6" stroke-linecap="round"/><line x1="345.7" y1="352.4" x2="362.7" y2="375.8" stroke="#0A0A0A" stroke-width="4.6" stroke-linecap="round"/><line x1="310.3" y1="352.4" x2="293.3" y2="375.8" stroke="#0A0A0A" stroke-width="4.6" stroke-linecap="round"/><line x1="299.3" y1="318.7" x2="271.8" y2="309.8" stroke="#0A0A0A" stroke-width="4.6" stroke-linecap="round"/><polygon points="328.0,297.8 356.7,318.7 345.7,352.4 310.3,352.4 299.3,318.7" fill="#0A0A0A"/></svg>