<svg xmlns="http://www.w3.org/2000/svg" width="848" height="848" viewBox="0 0 848 848"><rect width="848" height="848" fill="#FFFFFF"/><g fill="#065F46"><rect x="64" y="64" width="16" height="16"/><rect x="80" y="64" width="16" height="16"/><rect x="96" y="64" width="16" height="16"/><rect x="112" y="64" width="16" height="16"/><rect x="128" y="64" width="16" height="16"/><rect x="144" y="64" width="16" height="16"/><rect x="160" y="64" width="16" height="16"/><rect x="192" y="64" width="16" height="16"/><rect x="208" y="64" width="16" height="16"/><rect x="224" y="64" width="16" height="16"/><rect x="256" y="64" width="16" height="16"/><rect x="272" y="64" width="16" height="16"/><rect x="288" y="64" width="16" height="16"/><rect x="304" y="64" width="16" height="16"/><rect x="336" y="64" width="16" height="16"/><rect x="368" y="64" width="16" height="16"/><rect x="384" y="64" width="16" height="16"/><rect x="448" y="64" width="16" height="16"/><rect x="464" y="64" width="16" height="16"/><rect x="496" y="64" width="16" height="16"/><rect x="512" y="64" width="16" height="16"/><rect x="528" y="64" width="16" height="16"/><rect x="544" y="64" width="16" height="16"/><rect x="560" y="64" width="16" height="16"/><rect x="576" y="64" width="16" height="16"/><rect x="592" y="64" width="16" height="16"/><rect x="640" y="64" width="16" height="16"/><rect x="672" y="64" width="16" height="16"/><rect x="688" y="64" width="16" height="16"/><rect x="704" y="64" width="16" height="16"/><rect x="720" y="64" width="16" height="16"/><rect x="736" y="64" width="16" height="16"/><rect x="752" y="64" width="16" height="16"/><rect x="768" y="64" width="16" height="16"/><rect x="64" y="80" width="16" height="16"/><rect x="160" y="80" width="16" height="16"/><rect x="192" y="80" width="16" height="16"/><rect x="208" y="80" width="16" height="16"/><rect x="240" y="80" width="16" height="16"/><rect x="272" y="80" width="16" height="16"/><rect x="288" y="80" width="16" height="16"/><rect x="304" y="80" width="16" height="16"/><rect x="320" y="80" width="16" height="16"/><rect x="336" y="80" width="16" height="16"/><rect x="432" y="80" width="16" height="16"/><rect x="464" y="80" width="16" height="16"/><rect x="480" y="80" width="16" height="16"/><rect x="496" y="80" width="16" height="16"/><rect x="512" y="80" width="16" height="16"/><rect x="544" y="80" width="16" height="16"/><rect x="592" y="80" width="16" height="16"/><rect x="624" y="80" width="16" height="16"/><rect x="672" y="80" width="16" height="16"/><rect x="768" y="80" width="16" height="16"/><rect x="64" y="96" width="16" height="16"/><rect x="96" y="96" width="16" height="16"/><rect x="112" y="96" width="16" height="16"/><rect x="128" y="96" width="16" height="16"/><rect x="160" y="96" width="16" height="16"/><rect x="208" y="96" width="16" height="16"/><rect x="224" y="96" width="16" height="16"/><rect x="240" y="96" width="16" height="16"/><rect x="272" y="96" width="16" height="16"/><rect x="288" y="96" width="16" height="16"/><rect x="320" y="96" width="16" height="16"/><rect x="336" y="96" width="16" height="16"/><rect x="352" y="96" width="16" height="16"/><rect x="368" y="96" width="16" height="16"/><rect x="400" y="96" width="16" height="16"/><rect x="416" y="96" width="16" height="16"/><rect x="496" y="96" width="16" height="16"/><rect x="512" y="96" width="16" height="16"/><rect x="560" y="96" width="16" height="16"/><rect x="576" y="96" width="16" height="16"/><rect x="624" y="96" width="16" height="16"/><rect x="672" y="96" width="16" height="16"/><rect x="704" y="96" width="16" height="16"/><rect x="720" y="96" width="16" height="16"/><rect x="736" y="96" width="16" height="16"/><rect x="768" y="96" width="16" height="16"/><rect x="64" y="112" width="16" height="16"/><rect x="96" y="112" width="16" height="16"/><rect x="112" y="112" width="16" height="16"/><rect x="128" y="112" width="16" height="16"/><rect x="160" y="112" width="16" height="16"/><rect x="192" y="112" width="16" height="16"/><rect x="240" y="112" width="16" height="16"/><rect x="288" y="112" width="16" height="16"/><rect x="320" y="112" width="16" height="16"/><rect x="352" y="112" width="16" height="16"/><rect x="400" y="112" width="16" height="16"/><rect x="416" y="112" width="16" height="16"/><rect x="432" y="112" width="16" height="16"/><rect x="464" y="112" width="16" height="16"/><rect x="480" y="112" width="16" height="16"/><rect x="496" y="112" width="16" height="16"/><rect x="512" y="112" width="16" height="16"/><rect x="544" y="112" width="16" height="16"/><rect x="560" y="112" width="16" height="16"/><rect x="624" y="112" width="16" height="16"/><rect x="640" y="112" width="16" height="16"/><rect x="672" y="112" width="16" height="16"/><rect x="704" y="112" width="16" height="16"/><rect x="720" y="112" width="16" height="16"/><rect x="736" y="112" width="16" height="16"/><rect x="768" y="112" width="16" height="16"/><rect x="64" y="128" width="16" height="16"/><rect x="96" y="128" width="16" height="16"/><rect x="112" y="128" width="16" height="16"/><rect x="128" y="128" width="16" height="16"/><rect x="160" y="128" width="16" height="16"/><rect x="192" y="128" width="16" height="16"/><rect x="272" y="128" width="16" height="16"/><rect x="304" y="128" width="16" height="16"/><rect x="336" y="128" width="16" height="16"/><rect x="352" y="128" width="16" height="16"/><rect x="368" y="128" width="16" height="16"/><rect x="384" y="128" width="16" height="16"/><rect x="400" y="128" width="16" height="16"/><rect x="416" y="128" width="16" height="16"/><rect x="432" y="128" width="16" height="16"/><rect x="448" y="128" width="16" height="16"/><rect x="464" y="128" width="16" height="16"/><rect x="496" y="128" width="16" height="16"/><rect x="512" y="128" width="16" height="16"/><rect x="528" y="128" width="16" height="16"/><rect x="544" y="128" width="16" height="16"/><rect x="576" y="128" width="16" height="16"/><rect x="592" y="128" width="16" height="16"/><rect x="608" y="128" width="16" height="16"/><rect x="624" y="128" width="16" height="16"/><rect x="640" y="128" width="16" height="16"/><rect x="672" y="128" width="16" height="16"/><rect x="704" y="128" width="16" height="16"/><rect x="720" y="128" width="16" height="16"/><rect x="736" y="128" width="16" height="16"/><rect x="768" y="128" width="16" height="16"/><rect x="64" y="144" width="16" height="16"/><rect x="160" y="144" width="16" height="16"/><rect x="192" y="144" width="16" height="16"/><rect x="272" y="144" width="16" height="16"/><rect x="352" y="144" width="16" height="16"/><rect x="368" y="144" width="16" height="16"/><rect x="384" y="144" width="16" height="16"/><rect x="448" y="144" width="16" height="16"/><rect x="464" y="144" width="16" height="16"/><rect x="480" y="144" width="16" height="16"/><rect x="512" y="144" width="16" height="16"/><rect x="544" y="144" width="16" height="16"/><rect x="592" y="144" width="16" height="16"/><rect x="672" y="144" width="16" height="16"/><rect x="768" y="144" width="16" height="16"/><rect x="64" y="160" width="16" height="16"/><rect x="80" y="160" width="16" height="16"/><rect x="96" y="160" width="16" height="16"/><rect x="112" y="160" width="16" height="16"/><rect x="128" y="160" width="16" height="16"/><rect x="144" y="160" width="16" height="16"/><rect x="160" y="160" width="16" height="16"/><rect x="192" y="160" width="16" height="16"/><rect x="224" y="160" width="16" height="16"/><rect x="256" y="160" width="16" height="16"/><rect x="288" y="160" width="16" height="16"/><rect x="320" y="160" width="16" height="16"/><rect x="352" y="160" width="16" height="16"/><rect x="384" y="160" width="16" height="16"/><rect x="416" y="160" width="16" height="16"/><rect x="448" y="160" width="16" height="16"/><rect x="480" y="160" width="16" height="16"/><rect x="512" y="160" width="16" height="16"/><rect x="544" y="160" width="16" height="16"/><rect x="576" y="160" width="16" height="16"/><rect x="608" y="160" width="16" height="16"/><rect x="640" y="160" width="16" height="16"/><rect x="672" y="160" width="16" height="16"/><rect x="688" y="160" width="16" height="16"/><rect x="704" y="160" width="16" height="16"/><rect x="720" y="160" width="16" height="16"/><rect x="736" y="160" width="16" height="16"/><rect x="752" y="160" width="16" height="16"/><rect x="768" y="160" width="16" height="16"/><rect x="208" y="176" width="16" height="16"/><rect x="224" y="176" width="16" height="16"/><rect x="240" y="176" width="16" height="16"/><rect x="272" y="176" width="16" height="16"/><rect x="352" y="176" width="16" height="16"/><rect x="368" y="176" width="16" height="16"/><rect x="384" y="176" width="16" height="16"/><rect x="448" y="176" width="16" height="16"/><rect x="480" y="176" width="16" height="16"/><rect x="496" y="176" width="16" height="16"/><rect x="512" y="176" width="16" height="16"/><rect x="560" y="176" width="16" height="16"/><rect x="576" y="176" width="16" height="16"/><rect x="112" y="192" width="16" height="16"/><rect x="160" y="192" width="16" height="16"/><rect x="208" y="192" width="16" height="16"/><rect x="272" y="192" width="16" height="16"/><rect x="288" y="192" width="16" height="16"/><rect x="336" y="192" width="16" height="16"/><rect x="368" y="192" width="16" height="16"/><rect x="384" y="192" width="16" height="16"/><rect x="400" y="192" width="16" height="16"/><rect x="416" y="192" width="16" height="16"/><rect x="432" y="192" width="16" height="16"/><rect x="448" y="192" width="16" height="16"/><rect x="496" y="192" width="16" height="16"/><rect x="512" y="192" width="16" height="16"/><rect x="528" y="192" width="16" height="16"/><rect x="560" y="192" width="16" height="16"/><rect x="592" y="192" width="16" height="16"/><rect x="624" y="192" width="16" height="16"/><rect x="640" y="192" width="16" height="16"/><rect x="688" y="192" width="16" height="16"/><rect x="704" y="192" width="16" height="16"/><rect x="720" y="192" width="16" height="16"/><rect x="752" y="192" width="16" height="16"/><rect x="768" y="192" width="16" height="16"/><rect x="96" y="208" width="16" height="16"/><rect x="128" y="208" width="16" height="16"/><rect x="144" y="208" width="16" height="16"/><rect x="176" y="208" width="16" height="16"/><rect x="208" y="208" width="16" height="16"/><rect x="224" y="208" width="16" height="16"/><rect x="272" y="208" width="16" height="16"/><rect x="368" y="208" width="16" height="16"/><rect x="384" y="208" width="16" height="16"/><rect x="416" y="208" width="16" height="16"/><rect x="432" y="208" width="16" height="16"/><rect x="448" y="208" width="16" height="16"/><rect x="464" y="208" width="16" height="16"/><rect x="480" y="208" width="16" height="16"/><rect x="496" y="208" width="16" height="16"/><rect x="528" y="208" width="16" height="16"/><rect x="576" y="208" width="16" height="16"/><rect x="592" y="208" width="16" height="16"/><rect x="656" y="208" width="16" height="16"/><rect x="688" y="208" width="16" height="16"/><rect x="720" y="208" width="16" height="16"/><rect x="768" y="208" width="16" height="16"/><rect x="64" y="224" width="16" height="16"/><rect x="96" y="224" width="16" height="16"/><rect x="128" y="224" width="16" height="16"/><rect x="160" y="224" width="16" height="16"/><rect x="176" y="224" width="16" height="16"/><rect x="192" y="224" width="16" height="16"/><rect x="224" y="224" width="16" height="16"/><rect x="240" y="224" width="16" height="16"/><rect x="304" y="224" width="16" height="16"/><rect x="352" y="224" width="16" height="16"/><rect x="416" y="224" width="16" height="16"/><rect x="448" y="224" width="16" height="16"/><rect x="528" y="224" width="16" height="16"/><rect x="608" y="224" width="16" height="16"/><rect x="720" y="224" width="16" height="16"/><rect x="768" y="224" width="16" height="16"/><rect x="96" y="240" width="16" height="16"/><rect x="144" y="240" width="16" height="16"/><rect x="208" y="240" width="16" height="16"/><rect x="240" y="240" width="16" height="16"/><rect x="256" y="240" width="16" height="16"/><rect x="336" y="240" width="16" height="16"/><rect x="352" y="240" width="16" height="16"/><rect x="368" y="240" width="16" height="16"/><rect x="384" y="240" width="16" height="16"/><rect x="400" y="240" width="16" height="16"/><rect x="416" y="240" width="16" height="16"/><rect x="432" y="240" width="16" height="16"/><rect x="448" y="240" width="16" height="16"/><rect x="480" y="240" width="16" height="16"/><rect x="592" y="240" width="16" height="16"/><rect x="656" y="240" width="16" height="16"/><rect x="672" y="240" width="16" height="16"/><rect x="720" y="240" width="16" height="16"/><rect x="80" y="256" width="16" height="16"/><rect x="160" y="256" width="16" height="16"/><rect x="192" y="256" width="16" height="16"/><rect x="224" y="256" width="16" height="16"/><rect x="288" y="256" width="16" height="16"/><rect x="320" y="256" width="16" height="16"/><rect x="336" y="256" width="16" height="16"/><rect x="368" y="256" width="16" height="16"/><rect x="416" y="256" width="16" height="16"/><rect x="432" y="256" width="16" height="16"/><rect x="448" y="256" width="16" height="16"/><rect x="480" y="256" width="16" height="16"/><rect x="528" y="256" width="16" height="16"/><rect x="576" y="256" width="16" height="16"/><rect x="608" y="256" width="16" height="16"/><rect x="624" y="256" width="16" height="16"/><rect x="672" y="256" width="16" height="16"/><rect x="688" y="256" width="16" height="16"/><rect x="704" y="256" width="16" height="16"/><rect x="96" y="272" width="16" height="16"/><rect x="112" y="272" width="16" height="16"/><rect x="192" y="272" width="16" height="16"/><rect x="224" y="272" width="16" height="16"/><rect x="240" y="272" width="16" height="16"/><rect x="272" y="272" width="16" height="16"/><rect x="288" y="272" width="16" height="16"/><rect x="320" y="272" width="16" height="16"/><rect x="336" y="272" width="16" height="16"/><rect x="352" y="272" width="16" height="16"/><rect x="368" y="272" width="16" height="16"/><rect x="384" y="272" width="16" height="16"/><rect x="416" y="272" width="16" height="16"/><rect x="496" y="272" width="16" height="16"/><rect x="528" y="272" width="16" height="16"/><rect x="608" y="272" width="16" height="16"/><rect x="624" y="272" width="16" height="16"/><rect x="656" y="272" width="16" height="16"/><rect x="688" y="272" width="16" height="16"/><rect x="720" y="272" width="16" height="16"/><rect x="736" y="272" width="16" height="16"/><rect x="64" y="288" width="16" height="16"/><rect x="80" y="288" width="16" height="16"/><rect x="112" y="288" width="16" height="16"/><rect x="160" y="288" width="16" height="16"/><rect x="208" y="288" width="16" height="16"/><rect x="224" y="288" width="16" height="16"/><rect x="272" y="288" width="16" height="16"/><rect x="288" y="288" width="16" height="16"/><rect x="304" y="288" width="16" height="16"/><rect x="368" y="288" width="16" height="16"/><rect x="400" y="288" width="16" height="16"/><rect x="432" y="288" width="16" height="16"/><rect x="464" y="288" width="16" height="16"/><rect x="480" y="288" width="16" height="16"/><rect x="496" y="288" width="16" height="16"/><rect x="512" y="288" width="16" height="16"/><rect x="560" y="288" width="16" height="16"/><rect x="576" y="288" width="16" height="16"/><rect x="592" y="288" width="16" height="16"/><rect x="624" y="288" width="16" height="16"/><rect x="640" y="288" width="16" height="16"/><rect x="656" y="288" width="16" height="16"/><rect x="672" y="288" width="16" height="16"/><rect x="688" y="288" width="16" height="16"/><rect x="704" y="288" width="16" height="16"/><rect x="720" y="288" width="16" height="16"/><rect x="736" y="288" width="16" height="16"/><rect x="752" y="288" width="16" height="16"/><rect x="80" y="304" width="16" height="16"/><rect x="112" y="304" width="16" height="16"/><rect x="128" y="304" width="16" height="16"/><rect x="144" y="304" width="16" height="16"/><rect x="192" y="304" width="16" height="16"/><rect x="208" y="304" width="16" height="16"/><rect x="224" y="304" width="16" height="16"/><rect x="240" y="304" width="16" height="16"/><rect x="272" y="304" width="16" height="16"/><rect x="320" y="304" width="16" height="16"/><rect x="336" y="304" width="16" height="16"/><rect x="352" y="304" width="16" height="16"/><rect x="368" y="304" width="16" height="16"/><rect x="384" y="304" width="16" height="16"/><rect x="400" y="304" width="16" height="16"/><rect x="416" y="304" width="16" height="16"/><rect x="448" y="304" width="16" height="16"/><rect x="464" y="304" width="16" height="16"/><rect x="480" y="304" width="16" height="16"/><rect x="512" y="304" width="16" height="16"/><rect x="528" y="304" width="16" height="16"/><rect x="560" y="304" width="16" height="16"/><rect x="576" y="304" width="16" height="16"/><rect x="592" y="304" width="16" height="16"/><rect x="624" y="304" width="16" height="16"/><rect x="640" y="304" width="16" height="16"/><rect x="688" y="304" width="16" height="16"/><rect x="768" y="304" width="16" height="16"/><rect x="64" y="320" width="16" height="16"/><rect x="128" y="320" width="16" height="16"/><rect x="160" y="320" width="16" height="16"/><rect x="176" y="320" width="16" height="16"/><rect x="208" y="320" width="16" height="16"/><rect x="256" y="320" width="16" height="16"/><rect x="320" y="320" width="16" height="16"/><rect x="352" y="320" width="16" height="16"/><rect x="448" y="320" width="16" height="16"/><rect x="496" y="320" width="16" height="16"/><rect x="544" y="320" width="16" height="16"/><rect x="576" y="320" width="16" height="16"/><rect x="592" y="320" width="16" height="16"/><rect x="624" y="320" width="16" height="16"/><rect x="656" y="320" width="16" height="16"/><rect x="672" y="320" width="16" height="16"/><rect x="688" y="320" width="16" height="16"/><rect x="720" y="320" width="16" height="16"/><rect x="96" y="336" width="16" height="16"/><rect x="112" y="336" width="16" height="16"/><rect x="144" y="336" width="16" height="16"/><rect x="208" y="336" width="16" height="16"/><rect x="240" y="336" width="16" height="16"/><rect x="256" y="336" width="16" height="16"/><rect x="272" y="336" width="16" height="16"/><rect x="304" y="336" width="16" height="16"/><rect x="336" y="336" width="16" height="16"/><rect x="384" y="336" width="16" height="16"/><rect x="464" y="336" width="16" height="16"/><rect x="480" y="336" width="16" height="16"/><rect x="496" y="336" width="16" height="16"/><rect x="512" y="336" width="16" height="16"/><rect x="624" y="336" width="16" height="16"/><rect x="672" y="336" width="16" height="16"/><rect x="704" y="336" width="16" height="16"/><rect x="720" y="336" width="16" height="16"/><rect x="80" y="352" width="16" height="16"/><rect x="96" y="352" width="16" height="16"/><rect x="112" y="352" width="16" height="16"/><rect x="128" y="352" width="16" height="16"/><rect x="160" y="352" width="16" height="16"/><rect x="176" y="352" width="16" height="16"/><rect x="240" y="352" width="16" height="16"/><rect x="320" y="352" width="16" height="16"/><rect x="336" y="352" width="16" height="16"/><rect x="352" y="352" width="16" height="16"/><rect x="368" y="352" width="16" height="16"/><rect x="384" y="352" width="16" height="16"/><rect x="400" y="352" width="16" height="16"/><rect x="432" y="352" width="16" height="16"/><rect x="464" y="352" width="16" height="16"/><rect x="480" y="352" width="16" height="16"/><rect x="496" y="352" width="16" height="16"/><rect x="512" y="352" width="16" height="16"/><rect x="544" y="352" width="16" height="16"/><rect x="576" y="352" width="16" height="16"/><rect x="592" y="352" width="16" height="16"/><rect x="624" y="352" width="16" height="16"/><rect x="640" y="352" width="16" height="16"/><rect x="656" y="352" width="16" height="16"/><rect x="704" y="352" width="16" height="16"/><rect x="720" y="352" width="16" height="16"/><rect x="752" y="352" width="16" height="16"/><rect x="768" y="352" width="16" height="16"/><rect x="64" y="368" width="16" height="16"/><rect x="112" y="368" width="16" height="16"/><rect x="192" y="368" width="16" height="16"/><rect x="208" y="368" width="16" height="16"/><rect x="256" y="368" width="16" height="16"/><rect x="272" y="368" width="16" height="16"/><rect x="288" y="368" width="16" height="16"/><rect x="304" y="368" width="16" height="16"/><rect x="320" y="368" width="16" height="16"/><rect x="336" y="368" width="16" height="16"/><rect x="432" y="368" width="16" height="16"/><rect x="448" y="368" width="16" height="16"/><rect x="480" y="368" width="16" height="16"/><rect x="544" y="368" width="16" height="16"/><rect x="576" y="368" width="16" height="16"/><rect x="592" y="368" width="16" height="16"/><rect x="608" y="368" width="16" height="16"/><rect x="624" y="368" width="16" height="16"/><rect x="656" y="368" width="16" height="16"/><rect x="672" y="368" width="16" height="16"/><rect x="768" y="368" width="16" height="16"/><rect x="96" y="384" width="16" height="16"/><rect x="112" y="384" width="16" height="16"/><rect x="128" y="384" width="16" height="16"/><rect x="144" y="384" width="16" height="16"/><rect x="160" y="384" width="16" height="16"/><rect x="176" y="384" width="16" height="16"/><rect x="192" y="384" width="16" height="16"/><rect x="208" y="384" width="16" height="16"/><rect x="256" y="384" width="16" height="16"/><rect x="304" y="384" width="16" height="16"/><rect x="368" y="384" width="16" height="16"/><rect x="384" y="384" width="16" height="16"/><rect x="400" y="384" width="16" height="16"/><rect x="416" y="384" width="16" height="16"/><rect x="432" y="384" width="16" height="16"/><rect x="448" y="384" width="16" height="16"/><rect x="480" y="384" width="16" height="16"/><rect x="528" y="384" width="16" height="16"/><rect x="560" y="384" width="16" height="16"/><rect x="624" y="384" width="16" height="16"/><rect x="640" y="384" width="16" height="16"/><rect x="656" y="384" width="16" height="16"/><rect x="672" y="384" width="16" height="16"/><rect x="688" y="384" width="16" height="16"/><rect x="704" y="384" width="16" height="16"/><rect x="720" y="384" width="16" height="16"/><rect x="752" y="384" width="16" height="16"/><rect x="768" y="384" width="16" height="16"/><rect x="64" y="400" width="16" height="16"/><rect x="80" y="400" width="16" height="16"/><rect x="128" y="400" width="16" height="16"/><rect x="192" y="400" width="16" height="16"/><rect x="224" y="400" width="16" height="16"/><rect x="272" y="400" width="16" height="16"/><rect x="288" y="400" width="16" height="16"/><rect x="320" y="400" width="16" height="16"/><rect x="336" y="400" width="16" height="16"/><rect x="384" y="400" width="16" height="16"/><rect x="448" y="400" width="16" height="16"/><rect x="480" y="400" width="16" height="16"/><rect x="512" y="400" width="16" height="16"/><rect x="544" y="400" width="16" height="16"/><rect x="560" y="400" width="16" height="16"/><rect x="592" y="400" width="16" height="16"/><rect x="640" y="400" width="16" height="16"/><rect x="704" y="400" width="16" height="16"/><rect x="720" y="400" width="16" height="16"/><rect x="752" y="400" width="16" height="16"/><rect x="768" y="400" width="16" height="16"/><rect x="112" y="416" width="16" height="16"/><rect x="128" y="416" width="16" height="16"/><rect x="160" y="416" width="16" height="16"/><rect x="192" y="416" width="16" height="16"/><rect x="208" y="416" width="16" height="16"/><rect x="304" y="416" width="16" height="16"/><rect x="352" y="416" width="16" height="16"/><rect x="384" y="416" width="16" height="16"/><rect x="416" y="416" width="16" height="16"/><rect x="448" y="416" width="16" height="16"/><rect x="464" y="416" width="16" height="16"/><rect x="544" y="416" width="16" height="16"/><rect x="560" y="416" width="16" height="16"/><rect x="592" y="416" width="16" height="16"/><rect x="608" y="416" width="16" height="16"/><rect x="640" y="416" width="16" height="16"/><rect x="672" y="416" width="16" height="16"/><rect x="704" y="416" width="16" height="16"/><rect x="768" y="416" width="16" height="16"/><rect x="80" y="432" width="16" height="16"/><rect x="96" y="432" width="16" height="16"/><rect x="112" y="432" width="16" height="16"/><rect x="128" y="432" width="16" height="16"/><rect x="192" y="432" width="16" height="16"/><rect x="224" y="432" width="16" height="16"/><rect x="240" y="432" width="16" height="16"/><rect x="256" y="432" width="16" height="16"/><rect x="272" y="432" width="16" height="16"/><rect x="304" y="432" width="16" height="16"/><rect x="336" y="432" width="16" height="16"/><rect x="368" y="432" width="16" height="16"/><rect x="384" y="432" width="16" height="16"/><rect x="448" y="432" width="16" height="16"/><rect x="464" y="432" width="16" height="16"/><rect x="480" y="432" width="16" height="16"/><rect x="496" y="432" width="16" height="16"/><rect x="512" y="432" width="16" height="16"/><rect x="544" y="432" width="16" height="16"/><rect x="592" y="432" width="16" height="16"/><rect x="608" y="432" width="16" height="16"/><rect x="640" y="432" width="16" height="16"/><rect x="704" y="432" width="16" height="16"/><rect x="720" y="432" width="16" height="16"/><rect x="80" y="448" width="16" height="16"/><rect x="96" y="448" width="16" height="16"/><rect x="112" y="448" width="16" height="16"/><rect x="128" y="448" width="16" height="16"/><rect x="144" y="448" width="16" height="16"/><rect x="160" y="448" width="16" height="16"/><rect x="176" y="448" width="16" height="16"/><rect x="192" y="448" width="16" height="16"/><rect x="208" y="448" width="16" height="16"/><rect x="352" y="448" width="16" height="16"/><rect x="384" y="448" width="16" height="16"/><rect x="400" y="448" width="16" height="16"/><rect x="416" y="448" width="16" height="16"/><rect x="432" y="448" width="16" height="16"/><rect x="448" y="448" width="16" height="16"/><rect x="464" y="448" width="16" height="16"/><rect x="496" y="448" width="16" height="16"/><rect x="512" y="448" width="16" height="16"/><rect x="528" y="448" width="16" height="16"/><rect x="576" y="448" width="16" height="16"/><rect x="592" y="448" width="16" height="16"/><rect x="608" y="448" width="16" height="16"/><rect x="640" y="448" width="16" height="16"/><rect x="656" y="448" width="16" height="16"/><rect x="672" y="448" width="16" height="16"/><rect x="688" y="448" width="16" height="16"/><rect x="704" y="448" width="16" height="16"/><rect x="736" y="448" width="16" height="16"/><rect x="752" y="448" width="16" height="16"/><rect x="112" y="464" width="16" height="16"/><rect x="176" y="464" width="16" height="16"/><rect x="192" y="464" width="16" height="16"/><rect x="208" y="464" width="16" height="16"/><rect x="224" y="464" width="16" height="16"/><rect x="240" y="464" width="16" height="16"/><rect x="256" y="464" width="16" height="16"/><rect x="272" y="464" width="16" height="16"/><rect x="288" y="464" width="16" height="16"/><rect x="320" y="464" width="16" height="16"/><rect x="336" y="464" width="16" height="16"/><rect x="352" y="464" width="16" height="16"/><rect x="384" y="464" width="16" height="16"/><rect x="400" y="464" width="16" height="16"/><rect x="448" y="464" width="16" height="16"/><rect x="512" y="464" width="16" height="16"/><rect x="528" y="464" width="16" height="16"/><rect x="576" y="464" width="16" height="16"/><rect x="608" y="464" width="16" height="16"/><rect x="672" y="464" width="16" height="16"/><rect x="704" y="464" width="16" height="16"/><rect x="720" y="464" width="16" height="16"/><rect x="768" y="464" width="16" height="16"/><rect x="80" y="480" width="16" height="16"/><rect x="112" y="480" width="16" height="16"/><rect x="128" y="480" width="16" height="16"/><rect x="160" y="480" width="16" height="16"/><rect x="176" y="480" width="16" height="16"/><rect x="192" y="480" width="16" height="16"/><rect x="320" y="480" width="16" height="16"/><rect x="384" y="480" width="16" height="16"/><rect x="400" y="480" width="16" height="16"/><rect x="416" y="480" width="16" height="16"/><rect x="448" y="480" width="16" height="16"/><rect x="544" y="480" width="16" height="16"/><rect x="640" y="480" width="16" height="16"/><rect x="656" y="480" width="16" height="16"/><rect x="688" y="480" width="16" height="16"/><rect x="704" y="480" width="16" height="16"/><rect x="720" y="480" width="16" height="16"/><rect x="752" y="480" width="16" height="16"/><rect x="64" y="496" width="16" height="16"/><rect x="96" y="496" width="16" height="16"/><rect x="128" y="496" width="16" height="16"/><rect x="144" y="496" width="16" height="16"/><rect x="192" y="496" width="16" height="16"/><rect x="208" y="496" width="16" height="16"/><rect x="224" y="496" width="16" height="16"/><rect x="256" y="496" width="16" height="16"/><rect x="320" y="496" width="16" height="16"/><rect x="400" y="496" width="16" height="16"/><rect x="416" y="496" width="16" height="16"/><rect x="432" y="496" width="16" height="16"/><rect x="448" y="496" width="16" height="16"/><rect x="464" y="496" width="16" height="16"/><rect x="480" y="496" width="16" height="16"/><rect x="496" y="496" width="16" height="16"/><rect x="512" y="496" width="16" height="16"/><rect x="528" y="496" width="16" height="16"/><rect x="544" y="496" width="16" height="16"/><rect x="576" y="496" width="16" height="16"/><rect x="608" y="496" width="16" height="16"/><rect x="656" y="496" width="16" height="16"/><rect x="688" y="496" width="16" height="16"/><rect x="112" y="512" width="16" height="16"/><rect x="128" y="512" width="16" height="16"/><rect x="160" y="512" width="16" height="16"/><rect x="192" y="512" width="16" height="16"/><rect x="224" y="512" width="16" height="16"/><rect x="240" y="512" width="16" height="16"/><rect x="256" y="512" width="16" height="16"/><rect x="272" y="512" width="16" height="16"/><rect x="288" y="512" width="16" height="16"/><rect x="304" y="512" width="16" height="16"/><rect x="320" y="512" width="16" height="16"/><rect x="336" y="512" width="16" height="16"/><rect x="352" y="512" width="16" height="16"/><rect x="368" y="512" width="16" height="16"/><rect x="384" y="512" width="16" height="16"/><rect x="480" y="512" width="16" height="16"/><rect x="512" y="512" width="16" height="16"/><rect x="560" y="512" width="16" height="16"/><rect x="576" y="512" width="16" height="16"/><rect x="592" y="512" width="16" height="16"/><rect x="608" y="512" width="16" height="16"/><rect x="672" y="512" width="16" height="16"/><rect x="688" y="512" width="16" height="16"/><rect x="704" y="512" width="16" height="16"/><rect x="144" y="528" width="16" height="16"/><rect x="176" y="528" width="16" height="16"/><rect x="192" y="528" width="16" height="16"/><rect x="224" y="528" width="16" height="16"/><rect x="240" y="528" width="16" height="16"/><rect x="256" y="528" width="16" height="16"/><rect x="272" y="528" width="16" height="16"/><rect x="288" y="528" width="16" height="16"/><rect x="336" y="528" width="16" height="16"/><rect x="352" y="528" width="16" height="16"/><rect x="368" y="528" width="16" height="16"/><rect x="384" y="528" width="16" height="16"/><rect x="400" y="528" width="16" height="16"/><rect x="432" y="528" width="16" height="16"/><rect x="512" y="528" width="16" height="16"/><rect x="576" y="528" width="16" height="16"/><rect x="720" y="528" width="16" height="16"/><rect x="736" y="528" width="16" height="16"/><rect x="752" y="528" width="16" height="16"/><rect x="768" y="528" width="16" height="16"/><rect x="96" y="544" width="16" height="16"/><rect x="112" y="544" width="16" height="16"/><rect x="128" y="544" width="16" height="16"/><rect x="160" y="544" width="16" height="16"/><rect x="192" y="544" width="16" height="16"/><rect x="208" y="544" width="16" height="16"/><rect x="240" y="544" width="16" height="16"/><rect x="288" y="544" width="16" height="16"/><rect x="304" y="544" width="16" height="16"/><rect x="336" y="544" width="16" height="16"/><rect x="352" y="544" width="16" height="16"/><rect x="368" y="544" width="16" height="16"/><rect x="400" y="544" width="16" height="16"/><rect x="416" y="544" width="16" height="16"/><rect x="448" y="544" width="16" height="16"/><rect x="464" y="544" width="16" height="16"/><rect x="480" y="544" width="16" height="16"/><rect x="496" y="544" width="16" height="16"/><rect x="544" y="544" width="16" height="16"/><rect x="576" y="544" width="16" height="16"/><rect x="624" y="544" width="16" height="16"/><rect x="640" y="544" width="16" height="16"/><rect x="656" y="544" width="16" height="16"/><rect x="672" y="544" width="16" height="16"/><rect x="704" y="544" width="16" height="16"/><rect x="736" y="544" width="16" height="16"/><rect x="752" y="544" width="16" height="16"/><rect x="768" y="544" width="16" height="16"/><rect x="80" y="560" width="16" height="16"/><rect x="96" y="560" width="16" height="16"/><rect x="112" y="560" width="16" height="16"/><rect x="192" y="560" width="16" height="16"/><rect x="208" y="560" width="16" height="16"/><rect x="224" y="560" width="16" height="16"/><rect x="256" y="560" width="16" height="16"/><rect x="272" y="560" width="16" height="16"/><rect x="288" y="560" width="16" height="16"/><rect x="336" y="560" width="16" height="16"/><rect x="400" y="560" width="16" height="16"/><rect x="448" y="560" width="16" height="16"/><rect x="480" y="560" width="16" height="16"/><rect x="528" y="560" width="16" height="16"/><rect x="592" y="560" width="16" height="16"/><rect x="608" y="560" width="16" height="16"/><rect x="640" y="560" width="16" height="16"/><rect x="704" y="560" width="16" height="16"/><rect x="720" y="560" width="16" height="16"/><rect x="752" y="560" width="16" height="16"/><rect x="768" y="560" width="16" height="16"/><rect x="64" y="576" width="16" height="16"/><rect x="80" y="576" width="16" height="16"/><rect x="112" y="576" width="16" height="16"/><rect x="144" y="576" width="16" height="16"/><rect x="160" y="576" width="16" height="16"/><rect x="176" y="576" width="16" height="16"/><rect x="208" y="576" width="16" height="16"/><rect x="224" y="576" width="16" height="16"/><rect x="240" y="576" width="16" height="16"/><rect x="256" y="576" width="16" height="16"/><rect x="288" y="576" width="16" height="16"/><rect x="304" y="576" width="16" height="16"/><rect x="320" y="576" width="16" height="16"/><rect x="352" y="576" width="16" height="16"/><rect x="384" y="576" width="16" height="16"/><rect x="400" y="576" width="16" height="16"/><rect x="464" y="576" width="16" height="16"/><rect x="480" y="576" width="16" height="16"/><rect x="496" y="576" width="16" height="16"/><rect x="560" y="576" width="16" height="16"/><rect x="608" y="576" width="16" height="16"/><rect x="624" y="576" width="16" height="16"/><rect x="656" y="576" width="16" height="16"/><rect x="672" y="576" width="16" height="16"/><rect x="688" y="576" width="16" height="16"/><rect x="720" y="576" width="16" height="16"/><rect x="96" y="592" width="16" height="16"/><rect x="176" y="592" width="16" height="16"/><rect x="192" y="592" width="16" height="16"/><rect x="224" y="592" width="16" height="16"/><rect x="240" y="592" width="16" height="16"/><rect x="272" y="592" width="16" height="16"/><rect x="288" y="592" width="16" height="16"/><rect x="304" y="592" width="16" height="16"/><rect x="320" y="592" width="16" height="16"/><rect x="384" y="592" width="16" height="16"/><rect x="400" y="592" width="16" height="16"/><rect x="448" y="592" width="16" height="16"/><rect x="464" y="592" width="16" height="16"/><rect x="496" y="592" width="16" height="16"/><rect x="544" y="592" width="16" height="16"/><rect x="560" y="592" width="16" height="16"/><rect x="592" y="592" width="16" height="16"/><rect x="624" y="592" width="16" height="16"/><rect x="640" y="592" width="16" height="16"/><rect x="752" y="592" width="16" height="16"/><rect x="768" y="592" width="16" height="16"/><rect x="128" y="608" width="16" height="16"/><rect x="160" y="608" width="16" height="16"/><rect x="192" y="608" width="16" height="16"/><rect x="208" y="608" width="16" height="16"/><rect x="224" y="608" width="16" height="16"/><rect x="240" y="608" width="16" height="16"/><rect x="272" y="608" width="16" height="16"/><rect x="304" y="608" width="16" height="16"/><rect x="368" y="608" width="16" height="16"/><rect x="432" y="608" width="16" height="16"/><rect x="448" y="608" width="16" height="16"/><rect x="480" y="608" width="16" height="16"/><rect x="496" y="608" width="16" height="16"/><rect x="544" y="608" width="16" height="16"/><rect x="560" y="608" width="16" height="16"/><rect x="608" y="608" width="16" height="16"/><rect x="672" y="608" width="16" height="16"/><rect x="704" y="608" width="16" height="16"/><rect x="736" y="608" width="16" height="16"/><rect x="752" y="608" width="16" height="16"/><rect x="768" y="608" width="16" height="16"/><rect x="80" y="624" width="16" height="16"/><rect x="96" y="624" width="16" height="16"/><rect x="112" y="624" width="16" height="16"/><rect x="128" y="624" width="16" height="16"/><rect x="176" y="624" width="16" height="16"/><rect x="192" y="624" width="16" height="16"/><rect x="208" y="624" width="16" height="16"/><rect x="224" y="624" width="16" height="16"/><rect x="256" y="624" width="16" height="16"/><rect x="272" y="624" width="16" height="16"/><rect x="304" y="624" width="16" height="16"/><rect x="336" y="624" width="16" height="16"/><rect x="352" y="624" width="16" height="16"/><rect x="368" y="624" width="16" height="16"/><rect x="400" y="624" width="16" height="16"/><rect x="416" y="624" width="16" height="16"/><rect x="432" y="624" width="16" height="16"/><rect x="464" y="624" width="16" height="16"/><rect x="480" y="624" width="16" height="16"/><rect x="496" y="624" width="16" height="16"/><rect x="544" y="624" width="16" height="16"/><rect x="560" y="624" width="16" height="16"/><rect x="624" y="624" width="16" height="16"/><rect x="656" y="624" width="16" height="16"/><rect x="720" y="624" width="16" height="16"/><rect x="768" y="624" width="16" height="16"/><rect x="64" y="640" width="16" height="16"/><rect x="112" y="640" width="16" height="16"/><rect x="128" y="640" width="16" height="16"/><rect x="160" y="640" width="16" height="16"/><rect x="176" y="640" width="16" height="16"/><rect x="208" y="640" width="16" height="16"/><rect x="256" y="640" width="16" height="16"/><rect x="272" y="640" width="16" height="16"/><rect x="304" y="640" width="16" height="16"/><rect x="368" y="640" width="16" height="16"/><rect x="384" y="640" width="16" height="16"/><rect x="400" y="640" width="16" height="16"/><rect x="416" y="640" width="16" height="16"/><rect x="432" y="640" width="16" height="16"/><rect x="448" y="640" width="16" height="16"/><rect x="464" y="640" width="16" height="16"/><rect x="496" y="640" width="16" height="16"/><rect x="512" y="640" width="16" height="16"/><rect x="528" y="640" width="16" height="16"/><rect x="560" y="640" width="16" height="16"/><rect x="576" y="640" width="16" height="16"/><rect x="640" y="640" width="16" height="16"/><rect x="656" y="640" width="16" height="16"/><rect x="672" y="640" width="16" height="16"/><rect x="688" y="640" width="16" height="16"/><rect x="704" y="640" width="16" height="16"/><rect x="720" y="640" width="16" height="16"/><rect x="752" y="640" width="16" height="16"/><rect x="192" y="656" width="16" height="16"/><rect x="208" y="656" width="16" height="16"/><rect x="224" y="656" width="16" height="16"/><rect x="256" y="656" width="16" height="16"/><rect x="320" y="656" width="16" height="16"/><rect x="336" y="656" width="16" height="16"/><rect x="384" y="656" width="16" height="16"/><rect x="448" y="656" width="16" height="16"/><rect x="480" y="656" width="16" height="16"/><rect x="576" y="656" width="16" height="16"/><rect x="608" y="656" width="16" height="16"/><rect x="624" y="656" width="16" height="16"/><rect x="640" y="656" width="16" height="16"/><rect x="704" y="656" width="16" height="16"/><rect x="720" y="656" width="16" height="16"/><rect x="736" y="656" width="16" height="16"/><rect x="768" y="656" width="16" height="16"/><rect x="64" y="672" width="16" height="16"/><rect x="80" y="672" width="16" height="16"/><rect x="96" y="672" width="16" height="16"/><rect x="112" y="672" width="16" height="16"/><rect x="128" y="672" width="16" height="16"/><rect x="144" y="672" width="16" height="16"/><rect x="160" y="672" width="16" height="16"/><rect x="208" y="672" width="16" height="16"/><rect x="224" y="672" width="16" height="16"/><rect x="288" y="672" width="16" height="16"/><rect x="320" y="672" width="16" height="16"/><rect x="336" y="672" width="16" height="16"/><rect x="352" y="672" width="16" height="16"/><rect x="384" y="672" width="16" height="16"/><rect x="416" y="672" width="16" height="16"/><rect x="448" y="672" width="16" height="16"/><rect x="464" y="672" width="16" height="16"/><rect x="496" y="672" width="16" height="16"/><rect x="512" y="672" width="16" height="16"/><rect x="528" y="672" width="16" height="16"/><rect x="544" y="672" width="16" height="16"/><rect x="560" y="672" width="16" height="16"/><rect x="576" y="672" width="16" height="16"/><rect x="640" y="672" width="16" height="16"/><rect x="672" y="672" width="16" height="16"/><rect x="704" y="672" width="16" height="16"/><rect x="720" y="672" width="16" height="16"/><rect x="736" y="672" width="16" height="16"/><rect x="64" y="688" width="16" height="16"/><rect x="160" y="688" width="16" height="16"/><rect x="208" y="688" width="16" height="16"/><rect x="224" y="688" width="16" height="16"/><rect x="272" y="688" width="16" height="16"/><rect x="288" y="688" width="16" height="16"/><rect x="320" y="688" width="16" height="16"/><rect x="368" y="688" width="16" height="16"/><rect x="384" y="688" width="16" height="16"/><rect x="448" y="688" width="16" height="16"/><rect x="464" y="688" width="16" height="16"/><rect x="512" y="688" width="16" height="16"/><rect x="560" y="688" width="16" height="16"/><rect x="576" y="688" width="16" height="16"/><rect x="592" y="688" width="16" height="16"/><rect x="640" y="688" width="16" height="16"/><rect x="704" y="688" width="16" height="16"/><rect x="752" y="688" width="16" height="16"/><rect x="64" y="704" width="16" height="16"/><rect x="96" y="704" width="16" height="16"/><rect x="112" y="704" width="16" height="16"/><rect x="128" y="704" width="16" height="16"/><rect x="160" y="704" width="16" height="16"/><rect x="208" y="704" width="16" height="16"/><rect x="224" y="704" width="16" height="16"/><rect x="304" y="704" width="16" height="16"/><rect x="320" y="704" width="16" height="16"/><rect x="336" y="704" width="16" height="16"/><rect x="368" y="704" width="16" height="16"/><rect x="384" y="704" width="16" height="16"/><rect x="400" y="704" width="16" height="16"/><rect x="416" y="704" width="16" height="16"/><rect x="432" y="704" width="16" height="16"/><rect x="448" y="704" width="16" height="16"/><rect x="464" y="704" width="16" height="16"/><rect x="480" y="704" width="16" height="16"/><rect x="512" y="704" width="16" height="16"/><rect x="576" y="704" width="16" height="16"/><rect x="640" y="704" width="16" height="16"/><rect x="656" y="704" width="16" height="16"/><rect x="672" y="704" width="16" height="16"/><rect x="688" y="704" width="16" height="16"/><rect x="704" y="704" width="16" height="16"/><rect x="768" y="704" width="16" height="16"/><rect x="64" y="720" width="16" height="16"/><rect x="96" y="720" width="16" height="16"/><rect x="112" y="720" width="16" height="16"/><rect x="128" y="720" width="16" height="16"/><rect x="160" y="720" width="16" height="16"/><rect x="192" y="720" width="16" height="16"/><rect x="208" y="720" width="16" height="16"/><rect x="272" y="720" width="16" height="16"/><rect x="320" y="720" width="16" height="16"/><rect x="336" y="720" width="16" height="16"/><rect x="368" y="720" width="16" height="16"/><rect x="416" y="720" width="16" height="16"/><rect x="448" y="720" width="16" height="16"/><rect x="512" y="720" width="16" height="16"/><rect x="528" y="720" width="16" height="16"/><rect x="544" y="720" width="16" height="16"/><rect x="640" y="720" width="16" height="16"/><rect x="656" y="720" width="16" height="16"/><rect x="672" y="720" width="16" height="16"/><rect x="704" y="720" width="16" height="16"/><rect x="736" y="720" width="16" height="16"/><rect x="64" y="736" width="16" height="16"/><rect x="96" y="736" width="16" height="16"/><rect x="112" y="736" width="16" height="16"/><rect x="128" y="736" width="16" height="16"/><rect x="160" y="736" width="16" height="16"/><rect x="208" y="736" width="16" height="16"/><rect x="224" y="736" width="16" height="16"/><rect x="256" y="736" width="16" height="16"/><rect x="352" y="736" width="16" height="16"/><rect x="368" y="736" width="16" height="16"/><rect x="384" y="736" width="16" height="16"/><rect x="448" y="736" width="16" height="16"/><rect x="464" y="736" width="16" height="16"/><rect x="480" y="736" width="16" height="16"/><rect x="496" y="736" width="16" height="16"/><rect x="576" y="736" width="16" height="16"/><rect x="592" y="736" width="16" height="16"/><rect x="624" y="736" width="16" height="16"/><rect x="640" y="736" width="16" height="16"/><rect x="656" y="736" width="16" height="16"/><rect x="704" y="736" width="16" height="16"/><rect x="720" y="736" width="16" height="16"/><rect x="736" y="736" width="16" height="16"/><rect x="768" y="736" width="16" height="16"/><rect x="64" y="752" width="16" height="16"/><rect x="160" y="752" width="16" height="16"/><rect x="208" y="752" width="16" height="16"/><rect x="256" y="752" width="16" height="16"/><rect x="272" y="752" width="16" height="16"/><rect x="304" y="752" width="16" height="16"/><rect x="320" y="752" width="16" height="16"/><rect x="368" y="752" width="16" height="16"/><rect x="384" y="752" width="16" height="16"/><rect x="400" y="752" width="16" height="16"/><rect x="416" y="752" width="16" height="16"/><rect x="432" y="752" width="16" height="16"/><rect x="448" y="752" width="16" height="16"/><rect x="464" y="752" width="16" height="16"/><rect x="512" y="752" width="16" height="16"/><rect x="528" y="752" width="16" height="16"/><rect x="544" y="752" width="16" height="16"/><rect x="560" y="752" width="16" height="16"/><rect x="576" y="752" width="16" height="16"/><rect x="640" y="752" width="16" height="16"/><rect x="688" y="752" width="16" height="16"/><rect x="704" y="752" width="16" height="16"/><rect x="64" y="768" width="16" height="16"/><rect x="80" y="768" width="16" height="16"/><rect x="96" y="768" width="16" height="16"/><rect x="112" y="768" width="16" height="16"/><rect x="128" y="768" width="16" height="16"/><rect x="144" y="768" width="16" height="16"/><rect x="160" y="768" width="16" height="16"/><rect x="208" y="768" width="16" height="16"/><rect x="224" y="768" width="16" height="16"/><rect x="240" y="768" width="16" height="16"/><rect x="256" y="768" width="16" height="16"/><rect x="320" y="768" width="16" height="16"/><rect x="336" y="768" width="16" height="16"/><rect x="352" y="768" width="16" height="16"/><rect x="400" y="768" width="16" height="16"/><rect x="416" y="768" width="16" height="16"/><rect x="448" y="768" width="16" height="16"/><rect x="480" y="768" width="16" height="16"/><rect x="496" y="768" width="16" height="16"/><rect x="512" y="768" width="16" height="16"/><rect x="528" y="768" width="16" height="16"/><rect x="560" y="768" width="16" height="16"/><rect x="608" y="768" width="16" height="16"/><rect x="624" y="768" width="16" height="16"/><rect x="640" y="768" width="16" height="16"/><rect x="656" y="768" width="16" height="16"/><rect x="672" y="768" width="16" height="16"/><rect x="736" y="768" width="16" height="16"/><rect x="752" y="768" width="16" height="16"/></g><circle cx="424" cy="424" r="108.5" fill="#FFFFFF"/><circle cx="424" cy="424" r="84.8" fill="#FFFFFF" stroke="#0A0A0A" stroke-width="6.8"/><line x1="424.0" y1="385.0" x2="424.0" y2="347.7" stroke="#0A0A0A" stroke-width="5.9" stroke-linecap="round"/><line x1="461.1" y1="411.9" x2="496.6" y2="400.4" stroke="#0A0A0A" stroke-width="5.9" stroke-linecap="round"/><line x1="446.9" y1="455.6" x2="468.9" y2="485.7" stroke="#0A0A0A" stroke-width="5.9" stroke-linecap="round"/><line x1="401.1" y1="455.6" x2="379.1" y2="485.7" stroke="#0A0A0A" stroke-width="5.9" stroke-linecap="round"/><line x1="386.9" y1="411.9" x2="351.4" y2="400.4" stroke="#0A0A0A" stroke-width="5.9" stroke-linecap="round"/><polygon points="424.0,385.0 461.1,411.9 446.9,455.6 401.1,455.6 386.9,411.9" fill="#0A0A0A"/></svg>